<svg width="140" height="40" viewBox="0 0 140 40" fill="none" xmlns="http://www.w3.org/2000/svg">
  <path d="M20 0C8.954 0 0 8.954 0 20C0 31.046 8.954 40 20 40C31.046 40 40 31.046 40 20C40 8.954 31.046 0 20 0ZM20 36C11.178 36 4 28.822 4 20C4 11.178 11.178 4 20 4C28.822 4 36 11.178 36 20C36 28.822 28.822 36 20 36Z" fill="#3B82F6"/>
  <path d="M20 8C13.373 8 8 13.373 8 20C8 26.627 13.373 32 20 32C26.627 32 32 26.627 32 20C32 13.373 26.627 8 20 8ZM20 28C15.589 28 12 24.411 12 20C12 15.589 15.589 12 20 12C24.411 12 28 15.589 28 20C28 24.411 24.411 28 20 28Z" fill="#F97316"/>
  <path d="M50 28V12H54.4L59.2 20.8L64 12H68.4V28H64.4V18.4L60.4 25.6H58L54 18.4V28H50Z" fill="#171717"/>
  <path d="M71.5 28V12H84.5V15.6H75.5V18.4H83.5V22H75.5V24.4H84.5V28H71.5Z" fill="#171717"/>
  <path d="M94.4844 28.28C92.7644 28.28 91.2844 27.96 90.0444 27.32C88.8044 26.68 87.8444 25.78 87.1644 24.62C86.4844 23.46 86.1444 22.12 86.1444 20.6V20C86.1444 18.48 86.4844 17.14 87.1644 15.98C87.8444 14.82 88.8044 13.92 90.0444 13.28C91.2844 12.64 92.7644 12.32 94.4844 12.32C95.7644 12.32 96.9044 12.5 97.9044 12.86C98.9044 13.22 99.7644 13.74 100.484 14.42L98.0844 17.14C97.0844 16.22 95.9844 15.76 94.7844 15.76C93.7844 15.76 92.9844 16.08 92.3844 16.72C91.7844 17.36 91.4844 18.2 91.4844 19.24V19.84C91.4844 20.92 91.7844 21.78 92.3844 22.42C92.9844 23.06 93.8044 23.38 94.8444 23.38C96.0444 23.38 97.1644 22.9 98.2044 21.94L100.484 24.54C99.7644 25.26 98.8844 25.82 97.8444 26.22C96.8044 26.62 95.6844 26.82 94.4844 26.82L94.4844 28.28Z" fill="#171717"/>
  <path d="M109.491 28.3C107.771 28.3 106.291 27.98 105.051 27.34C103.811 26.7 102.851 25.8 102.171 24.64C101.491 23.48 101.151 22.14 101.151 20.62V20.02C101.151 18.5 101.491 17.16 102.171 16C102.851 14.84 103.811 13.94 105.051 13.3C106.291 12.66 107.771 12.34 109.491 12.34C111.211 12.34 112.691 12.66 113.931 13.3C115.171 13.94 116.131 14.84 116.811 16C117.491 17.16 117.831 18.5 117.831 20.02V20.62C117.831 22.14 117.491 23.48 116.811 24.64C116.131 25.8 115.171 26.7 113.931 27.34C112.691 27.98 111.211 28.3 109.491 28.3ZM109.491 24.18C110.531 24.18 111.351 23.84 111.951 23.16C112.551 22.48 112.851 21.54 112.851 20.34V20.3C112.851 19.1 112.551 18.16 111.951 17.48C111.351 16.8 110.531 16.46 109.491 16.46C108.451 16.46 107.631 16.8 107.031 17.48C106.431 18.16 106.131 19.1 106.131 20.3V20.34C106.131 21.54 106.431 22.48 107.031 23.16C107.631 23.84 108.451 24.18 109.491 24.18Z" fill="#171717"/>
  <path d="M120.406 28V12H124.806L129.606 20.8L134.406 12H138.806V28H134.806V18.4L130.806 25.6H128.406L124.406 18.4V28H120.406Z" fill="#171717"/>
</svg>
